Coordinates
version=1
nRows=5
nColumns=63
inDegrees=yes

Units are S.I. units (second, meters, Newtons, ...)
If the header above contains a line with 'inDegrees', this indicates whether rotational values are in degrees (yes) or radians (no).

endheader
time	pelvis_tilt	pelvis_list	pelvis_rotation	pelvis_tx	pelvis_ty	pelvis_tz	hip_flexion_r	hip_adduction_r	hip_rotation_r	knee_angle_r	knee_angle_r_beta	ankle_angle_r	subtalar_angle_r	mtp_angle_r	hip_flexion_l	hip_adduction_l	hip_rotation_l	knee_angle_l	knee_angle_l_beta	ankle_angle_l	subtalar_angle_l	mtp_angle_l	L5_S1_Flex_Ext	L5_S1_Lat_Bending	L5_S1_axial_rotation	L4_L5_Flex_Ext	L4_L5_Lat_Bending	L4_L5_axial_rotation	L3_L4_Flex_Ext	L3_L4_Lat_Bending	L3_L4_axial_rotation	L2_L3_Flex_Ext	L2_L3_Lat_Bending	L2_L3_axial_rotation	L1_L2_Flex_Ext	L1_L2_Lat_Bending	L1_L2_axial_rotation	L1_T12_Flex_Ext	L1_T12_Lat_Bending	L1_T12_axial_rotation	Abs_r3	Abs_r2	Abs_r1	Abs_t1	Abs_t2	neck_flexion	neck_bending	neck_rotation	arm_flex_r	arm_add_r	arm_rot_r	elbow_flex_r	pro_sup_r	wrist_flex_r	wrist_dev_r	arm_flex_l	arm_add_l	arm_rot_l	elbow_flex_l	pro_sup_l	wrist_flex_l	wrist_dev_l
      1.45000000	      1.45388203	     -1.29839354	     90.55941117	      0.20268424	      0.96133643	      0.58705968	      3.65166366	     -2.63404097	    -10.28813067	     13.94372926	      0.24336399	     35.62761428	      5.90769276	      0.00000000	      1.55780343	     -0.75471185	      9.02019351	     13.41200301	      0.23408361	     34.24153774	     -3.17817929	      0.00000000	      0.13671382	     -0.15978166	      0.47828549	      0.25389123	     -0.21250961	      0.50817833	      0.22460713	     -0.38849314	      0.50817833	      0.15625022	     -0.38849314	      0.41849980	      0.12695245	     -0.32582677	      0.38860696	      0.07811827	     -0.24750180	      0.35871411	      0.97653311	     -1.80748214	      2.66008039	      0.00000000	      0.00000000	     25.79260030	      6.55719945	     -5.54017519	     24.27330255	     -0.99137426	     14.68339600	    140.15059245	     89.03594696	     25.01382737	     -3.89162399	      4.48012939	    -14.20840410	     37.85735947	     32.61721284	     76.52163589	     -5.66864639	     -0.97248930
      1.46666667	      1.42674035	     -1.36684345	     90.44639623	      0.20323393	      0.96111562	      0.58688957	      3.73893524	     -2.54824309	     -9.47879820	     13.89933012	      0.24258907	     35.47958781	      5.00769509	      0.00000000	      1.57502619	     -0.82623450	      8.35981256	     13.36415673	      0.23324854	     34.48817019	     -2.34873479	      0.00000000	      0.14577980	     -0.16601813	      0.61816503	      0.27072768	     -0.22080411	      0.65680035	      0.23950164	     -0.40365647	      0.65680035	      0.16661174	     -0.40365647	      0.54089440	      0.13537113	     -0.33854416	      0.50225909	      0.08329858	     -0.25716208	      0.46362377	      1.04129057	     -1.87803026	      3.43804845	      0.00000000	      0.00000000	     25.90449936	      6.28053418	     -6.06447832	     24.30464884	     -0.87174687	     13.96717224	    140.63914273	     89.02282695	     25.74351066	     -3.33128187	      5.20906527	    -14.44791428	     40.67615510	     32.37194568	     74.23836210	     -6.27924087	     -1.44057270
      1.48333333	      1.34825765	     -1.42908381	     90.40674743	      0.20334679	      0.96079559	      0.58662021	      3.77476781	     -2.68721436	     -9.93541798	     13.83728981	      0.24150627	     35.54683811	      5.70544264	      0.00000000	      1.51960695	     -0.58358386	      9.87782893	     13.21419340	      0.23063118	     34.14204198	     -4.49617532	      0.00000000	      0.15324100	     -0.17543920	      0.69802748	      0.28458386	     -0.23333413	      0.74165420	      0.25175963	     -0.42656286	      0.74165420	      0.17513914	     -0.42656286	      0.61077405	      0.14229959	     -0.35775561	      0.56714733	      0.08756191	     -0.27175531	      0.52352061	      1.09458512	     -1.98460326	      3.88221946	      0.00000000	      0.00000000	     26.01653596	      6.08488734	     -6.41713820	     24.39254786	     -0.82414812	     13.48973912	    141.15194764	     89.05108811	     25.33966986	     -2.34370069	      5.21397090	    -14.35175708	     40.20189721	     32.46704277	     74.98596936	     -5.93354837	     -0.98753902
      1.50000000	      1.26995217	     -1.49810642	     90.20898637	      0.20380985	      0.96052118	      0.58669832	      3.86841016	     -2.73204031	     -9.66773882	     13.77093326	      0.24034813	     35.42249949	      5.53328019	      0.00000000	      1.56295698	     -0.54100599	      9.54350184	     13.18336410	      0.23009311	     34.33569457	     -4.25699077	      0.00000000	      0.15569257	     -0.18782295	      0.81900033	      0.28913668	     -0.24980452	      0.87018785	      0.25578733	     -0.45667271	      0.87018785	      0.17794104	     -0.45667271	      0.71662529	      0.14457612	     -0.38300855	      0.66543777	      0.08896274	     -0.29093774	      0.61425025	      1.11209648	     -2.12469073	      4.55503414	      0.00000000	      0.00000000	     26.07862890	      5.88269413	     -6.90455220	     24.51183527	     -0.93935483	     12.96103165	    141.65200982	     89.10745749	     24.66740593	     -1.36281491	      5.75760351	    -14.50574053	     42.01559604	     32.24346582	     73.52145371	     -6.09188936	     -1.29743295
      1.51666667	      1.16584256	     -1.61302387	     90.10421998	      0.20404371	      0.96016121	      0.58688809	      3.99005932	     -2.85032074	     -9.81316237	     13.69475829	      0.23901862	     35.34545827	      5.68695446	      0.00000000	      1.63234292	     -0.34441756	     10.37034784	     13.09403962	      0.22853410	     34.16742619	     -5.54870299	      0.00000000	      0.16095533	     -0.20129136	      0.84406762	      0.29891013	     -0.26771751	      0.89682184	      0.26443350	     -0.48941982	      0.89682184	      0.18395584	     -0.48941982	      0.73855916	      0.14946312	     -0.41047335	      0.68580494	      0.09196987	     -0.31180032	      0.63305071	      1.14968779	     -2.27704817	      4.69445086	      0.00000000	      0.00000000	     26.05062373	      5.98143304	     -6.68210528	     24.81460403	     -1.03368226	     12.91073669	    141.82093219	     89.17585247	     23.93831961	     -1.08383102	      5.76682304	    -14.51725387	     41.77668170	     32.14339759	     74.15663133	     -5.88723052	     -1.60314701
